<svg width="64" height="64" viewBox="0 0 64 64" fill="none" xmlns="http://www.w3.org/2000/svg">
<g id="Frame 241 1" clip-path="url(#clip0_806_804)">
<path id="Vector" d="M56 0H8C3.58172 0 0 3.58172 0 8V56C0 60.4183 3.58172 64 8 64H56C60.4183 64 64 60.4183 64 56V8C64 3.58172 60.4183 0 56 0Z" fill="white"/>
<path id="Vector_2" d="M32.8545 12.3898C32.9703 12.2772 33.1565 12.1473 33.2593 12.0953C33.3621 12.0433 33.5549 12 33.6769 12C33.7991 12 34.0175 12.0433 34.1587 12.1039C34.3001 12.1559 34.5185 12.3465 34.6407 12.511C34.8269 12.7622 34.9491 13.126 35.3409 14.5899C35.5979 15.5687 36.1119 17.3617 36.4717 18.5744C36.8315 19.787 37.3519 21.4674 37.6281 22.299C37.8979 23.1304 38.4505 24.707 38.8423 25.807C39.2407 26.8984 39.8511 28.5008 40.1979 29.3584C40.5449 30.2158 41.1039 31.5412 41.4379 32.3034C41.7721 33.0656 42.4595 34.5294 42.9605 35.5516C43.4617 36.5736 44.2455 38.0722 44.6953 38.8864C45.1449 39.7006 45.7553 40.7488 46.0445 41.2252C46.3335 41.7016 46.8925 42.5764 47.2779 43.174C47.6635 43.7718 48.4279 44.863 48.9741 45.5994C49.5201 46.3442 50.3875 47.4616 50.9079 48.094C51.6595 49.0034 51.8717 49.3066 51.9295 49.5578C51.9679 49.7398 52.0001 50.0602 52.0001 50.2768C52.0001 50.4934 51.9423 50.8224 51.8717 51.013C51.8073 51.2036 51.6595 51.4634 51.5439 51.5934C51.4347 51.732 51.2355 51.8792 51.1071 51.9226C50.9401 51.9918 48.0425 52.0092 33.2401 51.9658L32.9573 51.706C32.7967 51.55 32.6233 51.2816 32.3921 50.6666V31.983C32.3921 13.4639 32.3921 13.2906 32.5205 12.9441C32.5911 12.7536 32.7453 12.5024 32.8545 12.3898Z" fill="black"/>
<path id="Vector_3" d="M25.6332 12.4678C25.7296 12.3725 25.9094 12.2512 26.0314 12.1906C26.16 12.1213 26.4362 12.0866 26.674 12.104C26.976 12.1213 27.175 12.1906 27.3806 12.3552C27.5412 12.4764 27.7662 12.7276 27.8818 12.9095C27.9974 13.0914 28.1388 13.4639 28.1902 13.7237C28.293 14.1915 28.2866 14.2521 28.0296 16.3656C27.8882 17.5523 27.6954 19.2933 27.612 20.2202C27.522 21.147 27.4064 22.5674 27.355 23.3816C27.2972 24.1872 27.22 25.4346 27.188 26.1534C27.1494 26.8638 27.1044 28.8734 27.0788 30.6144C27.0594 32.5546 27.0722 34.5902 27.1172 35.898C27.1622 37.0674 27.2328 38.7218 27.2908 39.5794C27.3422 40.4368 27.4256 41.6668 27.4834 42.3078C27.5348 42.9488 27.6634 44.2914 27.7662 45.2962C27.8754 46.301 28.0296 47.6608 28.1196 48.3278C28.2094 48.9948 28.2802 49.6964 28.2802 49.887C28.2802 50.0776 28.2094 50.424 28.126 50.6666C28.0488 50.9004 27.869 51.2382 27.7276 51.4114C27.5926 51.576 27.3486 51.784 27.188 51.8706C26.9824 51.9832 26.7832 52.0178 26.5134 51.9918C26.3014 51.9744 26.025 51.8878 25.903 51.81C25.7744 51.7232 22.8962 47.912 18.9836 42.637C13.3877 35.0838 12.2634 33.5334 12.1478 33.1696C12.0535 32.8808 12.0043 32.5632 12 32.2168C12 31.8356 12.045 31.5844 12.1606 31.264C12.2763 30.9434 13.2785 29.5056 16.1375 25.5472C18.2384 22.6454 21.2002 18.5484 22.71 16.4522C24.2262 14.356 25.5368 12.563 25.6332 12.4678Z" fill="black"/>
</g>
<defs>
<clipPath id="clip0_806_804">
<rect width="64" height="64" fill="white"/>
</clipPath>
</defs>
</svg>
