<svg width="32" height="32" viewBox="0 0 32 32" fill="none" xmlns="http://www.w3.org/2000/svg">
<g id="copy">
<path id="Vector" d="M20.25 2C21.112 2 21.9386 2.34241 22.5481 2.9519C23.1576 3.5614 23.5 4.38805 23.5 5.25V23.25C23.5 23.6768 23.4159 24.0994 23.2526 24.4937C23.0893 24.888 22.8499 25.2463 22.5481 25.5481C22.2463 25.8499 21.888 26.0893 21.4937 26.2526C21.0994 26.4159 20.6768 26.5 20.25 26.5H8.25C7.8232 26.5 7.40059 26.4159 7.00628 26.2526C6.61197 26.0893 6.25369 25.8499 5.9519 25.5481C5.65011 25.2463 5.41072 24.888 5.24739 24.4937C5.08406 24.0994 5 23.6768 5 23.25V5.25C5 4.38805 5.34241 3.5614 5.9519 2.9519C6.5614 2.34241 7.38805 2 8.25 2H20.25ZM21.5 5.25C21.5 4.56 20.94 4 20.25 4H8.25C7.56 4 7 4.56 7 5.25V23.25C7 23.94 7.56 24.5 8.25 24.5H20.25C20.94 24.5 21.5 23.94 21.5 23.25V5.25ZM25 5.749C26.174 6.239 27 7.398 27 8.749V23.5C27 24.3536 26.8319 25.1988 26.5052 25.9874C26.1786 26.7761 25.6998 27.4926 25.0962 28.0962C23.8772 29.3152 22.2239 30 20.5 30H11.75C11.1082 30.0001 10.4808 29.8102 9.94675 29.4543C9.41271 29.0984 8.99596 28.5924 8.749 28H20.5C21.6935 28 22.8381 27.5259 23.682 26.682C24.5259 25.8381 25 24.6935 25 23.5V5.749Z" fill="white"/>
</g>
</svg>
