<svg width="33" height="32" viewBox="0 0 33 32" fill="none" xmlns="http://www.w3.org/2000/svg">
<g clip-path="url(#clip0_363_688)">
<path fill-rule="evenodd" clip-rule="evenodd" d="M3.34375 0.0125L29.5625 0L30.05 0.15625C30.3125 0.2375 30.7 0.41875 30.9062 0.55C31.1125 0.6875 31.4187 0.95 31.5812 1.13125C31.75 1.31875 31.9688 1.60625 32.0625 1.78125C32.1562 1.95 32.2937 2.2875 32.3687 2.53125C32.5 2.96875 32.5 2.9875 32.5 15.9688C32.5 28.9312 32.5 28.9688 32.3687 29.4375C32.3 29.6938 32.1625 30.05 32.0625 30.2188C31.9688 30.3875 31.7625 30.6688 31.6125 30.8438C31.4562 31.0125 31.1687 31.2687 30.9625 31.4062C30.7625 31.5438 30.3687 31.7313 29.5938 32H3.40625L2.90625 31.825C2.63125 31.7313 2.2375 31.5438 2.0375 31.4062C1.83125 31.2687 1.54375 31.0125 1.3875 30.8438C1.2375 30.6688 1.03125 30.3875 0.9375 30.2188C0.84375 30.0438 0.70625 29.7125 0.63125 29.4688C0.5 29.0312 0.5 29.0125 0.5 16.0312C0.5 3.06875 0.5 3.03125 0.63125 2.5625C0.7 2.30625 0.8375 1.95 0.9375 1.78125C1.03125 1.60625 1.2375 1.325 1.3875 1.15625C1.54375 0.98125 1.83125 0.73125 2.0375 0.59375C2.2375 0.45625 2.61875 0.26875 2.875 0.18125L3.34375 0.0125ZM11.9688 7.4375C11.5562 7.53125 10.9375 7.7 10.5938 7.8125C10.25 7.91875 9.61875 8.15625 9.19375 8.33125L8.425 8.65625C7.86875 9.525 7.5375 10.0875 7.33125 10.4688C7.125 10.8438 6.825 11.45 6.65625 11.8125C6.49375 12.1687 6.26875 12.7063 6.15625 13C6.04375 13.2875 5.86875 13.8125 5.7625 14.1562C5.65625 14.5 5.5 15.075 5.4125 15.4375C5.325 15.7937 5.2 16.4875 5.125 16.9688C5.0375 17.5438 4.98125 18.2938 4.95625 19.1875C4.9375 19.925 4.9375 20.825 4.9625 21.1875L5.00625 21.8438C6.1875 22.6313 6.7 22.9563 6.90625 23.075C7.1125 23.2 7.5625 23.4375 7.90625 23.6063C8.25 23.7812 8.76875 24.0188 9.0625 24.1375C9.35625 24.2625 9.8375 24.4438 10.1438 24.5562C10.4438 24.6625 10.7375 24.75 10.7937 24.75C10.8625 24.75 11.0375 24.55 11.2437 24.2313C11.4312 23.95 11.6937 23.5125 11.825 23.2625C11.9563 23.0125 12.05 22.7812 12.0312 22.75C12.0125 22.7125 11.9625 22.6875 11.9187 22.6875C11.8812 22.6812 11.4688 22.5 11.0125 22.2812C10.5625 22.0562 10.1875 21.85 10.1875 21.825C10.1812 21.8 10.2812 21.7 10.4062 21.6063L10.625 21.4375C11.1812 21.6875 11.65 21.8687 12.0312 21.9937C12.4125 22.125 13.0562 22.3125 13.4688 22.4C13.8813 22.4937 14.5437 22.6125 14.9375 22.6562C15.3313 22.7062 16.0063 22.7437 16.4375 22.7437C16.8687 22.7437 17.475 22.7188 17.7812 22.6875C18.0875 22.65 18.525 22.5938 18.75 22.5562C18.975 22.5187 19.3813 22.4312 19.6562 22.3625C19.9312 22.3 20.425 22.1562 20.75 22.05C21.075 21.9437 21.5625 21.7562 21.825 21.6437L22.3125 21.4375C22.6 21.675 22.6875 21.775 22.6875 21.8125C22.6875 21.8438 22.5125 21.9688 22.2938 22.0875C22.0813 22.2062 21.6625 22.4125 21.3563 22.5438L20.8125 22.7812C21.2188 23.5063 21.4875 23.95 21.6812 24.2375C21.9 24.5562 22.075 24.75 22.1375 24.75C22.2 24.75 22.6375 24.6062 23.1063 24.425C23.5813 24.25 24.3188 23.9437 24.75 23.7375C25.1812 23.5312 25.8813 23.1562 26.3125 22.9C26.7437 22.6437 27.2812 22.2937 27.5125 22.1187L27.9375 21.8125C28 20.575 28 19.6938 27.9813 19.0625C27.9563 18.425 27.8813 17.5125 27.8125 17.0312C27.7437 16.55 27.5875 15.7625 27.4688 15.2812C27.3563 14.8 27.1688 14.1375 27.0625 13.8125C26.95 13.4812 26.7437 12.9187 26.5938 12.5625C26.45 12.2 26.1688 11.5875 25.975 11.2C25.7812 10.8125 25.4625 10.225 25.2625 9.8875C25.0625 9.55625 24.8 9.13125 24.6812 8.95625C24.4875 8.65 24.425 8.60625 23.875 8.38125C23.55 8.24375 22.9875 8.03125 22.625 7.90625C22.2625 7.78125 21.575 7.5875 21.0938 7.46875C20.6125 7.35 20.1 7.24375 19.95 7.21875L19.6875 7.1875C19.1375 8.33125 19.075 8.425 18.9688 8.4C18.9 8.3875 18.5875 8.34375 18.2812 8.3125C17.975 8.275 17.1562 8.25 16.4688 8.25C15.7812 8.25 14.9625 8.275 14.6562 8.3125C14.35 8.34375 14.0375 8.3875 13.9688 8.4C13.8625 8.425 13.7937 8.33125 13.5312 7.80625C13.2875 7.31875 13.1938 7.1875 13.0938 7.19375C13.025 7.19375 12.9125 7.2125 12.8438 7.225C12.775 7.24375 12.3813 7.3375 11.9688 7.4375ZM12.6562 14.5625C13.0312 14.5562 13.15 14.5875 13.4937 14.7625C13.7188 14.875 13.9938 15.0813 14.1125 15.2188C14.2312 15.3562 14.4 15.6187 14.4937 15.8125C14.6375 16.1187 14.6562 16.2313 14.6562 16.8438C14.6562 17.4625 14.6375 17.5625 14.4812 17.8875C14.3875 18.0875 14.1875 18.3813 14.0375 18.5438C13.875 18.725 13.6312 18.9 13.4312 18.9875C13.2437 19.0687 12.95 19.15 12.7812 19.1688C12.5875 19.1875 12.3375 19.1625 12.125 19.1063C11.9375 19.05 11.6625 18.9188 11.5125 18.8125C11.3687 18.7062 11.15 18.4875 11.0375 18.325C10.9188 18.1625 10.7562 17.8312 10.6812 17.5938C10.5687 17.2437 10.55 17.0625 10.575 16.6875C10.5938 16.3625 10.6625 16.1 10.775 15.8438C10.8687 15.6375 11.0188 15.3813 11.1062 15.2812C11.1937 15.175 11.3812 15.0063 11.525 14.9062C11.6687 14.8 11.8813 14.6875 12 14.6438C12.1187 14.6 12.4187 14.5625 12.6562 14.5625ZM20.3125 14.5625C20.6812 14.5625 20.85 14.5938 21.1125 14.7188C21.2875 14.8 21.5563 14.9937 21.7 15.1375C21.8438 15.2875 22.05 15.5875 22.1562 15.8125C22.325 16.1812 22.3438 16.275 22.3438 16.8438C22.3375 17.3312 22.3125 17.5438 22.2062 17.8125C22.1312 18 21.9375 18.3062 21.7687 18.4875C21.5875 18.6875 21.3312 18.8875 21.125 18.9875C20.8438 19.125 20.6938 19.1562 20.3125 19.1562C19.9312 19.1562 19.7812 19.125 19.5 18.9875C19.3125 18.8937 19.0312 18.6875 18.875 18.5187C18.725 18.35 18.5312 18.0625 18.4438 17.875C18.3313 17.6313 18.2812 17.3813 18.2625 17.0312C18.2438 16.675 18.2625 16.4188 18.3438 16.1562C18.4 15.95 18.5375 15.6438 18.6437 15.475C18.7562 15.3063 18.9438 15.0875 19.0625 14.9937C19.1812 14.9 19.4062 14.7625 19.5625 14.6938C19.7687 14.6 19.975 14.5625 20.3125 14.5625Z" fill="#515DD7"/>
<path fill-rule="evenodd" clip-rule="evenodd" d="M11.9688 7.4375C11.5562 7.53125 10.9375 7.7 10.5938 7.8125C10.25 7.91875 9.61875 8.15625 9.19375 8.33125L8.425 8.65625C7.86875 9.525 7.5375 10.0875 7.33125 10.4688C7.125 10.8438 6.825 11.45 6.65625 11.8125C6.49375 12.1687 6.26875 12.7063 6.15625 13C6.04375 13.2875 5.86875 13.8125 5.7625 14.1562C5.65625 14.5 5.5 15.075 5.4125 15.4375C5.325 15.7937 5.2 16.4875 5.125 16.9688C5.0375 17.5438 4.98125 18.2938 4.95625 19.1875C4.9375 19.925 4.9375 20.825 4.9625 21.1875L5.00625 21.8438C6.1875 22.6313 6.7 22.9563 6.90625 23.075C7.1125 23.2 7.5625 23.4375 7.90625 23.6063C8.25 23.7812 8.76875 24.0188 9.0625 24.1375C9.35625 24.2625 9.8375 24.4438 10.1438 24.5562C10.4438 24.6625 10.7375 24.75 10.7937 24.75C10.8625 24.75 11.0375 24.55 11.2437 24.2313C11.4312 23.95 11.6937 23.5125 11.825 23.2625C11.9563 23.0125 12.05 22.7812 12.0312 22.75C12.0125 22.7125 11.9625 22.6875 11.9187 22.6875C11.8812 22.6812 11.4688 22.5 11.0125 22.2812C10.5625 22.0562 10.1875 21.85 10.1875 21.825C10.1812 21.8 10.2812 21.7 10.4062 21.6063L10.625 21.4375C11.1812 21.6875 11.65 21.8687 12.0312 21.9937C12.4125 22.125 13.0562 22.3125 13.4688 22.4C13.8813 22.4937 14.5437 22.6125 14.9375 22.6562C15.3313 22.7062 16.0063 22.7437 16.4375 22.7437C16.8687 22.7437 17.475 22.7188 17.7812 22.6875C18.0875 22.65 18.525 22.5938 18.75 22.5562C18.975 22.5187 19.3813 22.4312 19.6562 22.3625C19.9312 22.3 20.425 22.1562 20.75 22.05C21.075 21.9437 21.5625 21.7562 21.825 21.6437L22.3125 21.4375C22.6 21.675 22.6875 21.775 22.6875 21.8125C22.6875 21.8438 22.5125 21.9688 22.2938 22.0875C22.0813 22.2062 21.6625 22.4125 21.3563 22.5438L20.8125 22.7812C21.2188 23.5063 21.4875 23.95 21.6812 24.2375C21.9 24.5562 22.075 24.75 22.1375 24.75C22.2 24.75 22.6375 24.6062 23.1063 24.425C23.5813 24.25 24.3188 23.9437 24.75 23.7375C25.1812 23.5312 25.8813 23.1562 26.3125 22.9C26.7437 22.6437 27.2812 22.2937 27.5125 22.1187L27.9375 21.8125C28 20.575 28 19.6938 27.9813 19.0625C27.9563 18.425 27.8813 17.5125 27.8125 17.0312C27.7437 16.55 27.5875 15.7625 27.4688 15.2812C27.3563 14.8 27.1688 14.1375 27.0625 13.8125C26.95 13.4812 26.7437 12.9187 26.5938 12.5625C26.45 12.2 26.1688 11.5875 25.975 11.2C25.7812 10.8125 25.4625 10.225 25.2625 9.8875C25.0625 9.55625 24.8 9.13125 24.6812 8.95625C24.4875 8.65 24.425 8.60625 23.875 8.38125C23.55 8.24375 22.9875 8.03125 22.625 7.90625C22.2625 7.78125 21.575 7.5875 21.0938 7.46875C20.6125 7.35 20.1 7.24375 19.95 7.21875L19.6875 7.1875C19.1375 8.33125 19.075 8.425 18.9688 8.4C18.9 8.3875 18.5875 8.34375 18.2812 8.3125C17.975 8.275 17.1562 8.25 16.4688 8.25C15.7812 8.25 14.9625 8.275 14.6562 8.3125C14.35 8.34375 14.0375 8.3875 13.9688 8.4C13.8625 8.425 13.7937 8.33125 13.5312 7.80625C13.2875 7.31875 13.1938 7.1875 13.0938 7.19375C13.025 7.19375 12.9125 7.2125 12.8438 7.225C12.775 7.24375 12.3813 7.3375 11.9688 7.4375ZM13.4937 14.7625C13.15 14.5875 13.0312 14.5562 12.6562 14.5625C12.4187 14.5625 12.1187 14.6 12 14.6438C11.8813 14.6875 11.6687 14.8 11.525 14.9062C11.3812 15.0063 11.1937 15.175 11.1062 15.2812C11.0188 15.3813 10.8687 15.6375 10.775 15.8438C10.6625 16.1 10.5938 16.3625 10.575 16.6875C10.55 17.0625 10.5687 17.2437 10.6812 17.5938C10.7562 17.8312 10.9188 18.1625 11.0375 18.325C11.15 18.4875 11.3687 18.7062 11.5125 18.8125C11.6625 18.9188 11.9375 19.05 12.125 19.1063C12.3375 19.1625 12.5875 19.1875 12.7812 19.1688C12.95 19.15 13.2437 19.0687 13.4312 18.9875C13.6312 18.9 13.875 18.725 14.0375 18.5438C14.1875 18.3813 14.3875 18.0875 14.4812 17.8875C14.6375 17.5625 14.6562 17.4625 14.6562 16.8438C14.6562 16.2313 14.6375 16.1187 14.4937 15.8125C14.4 15.6187 14.2312 15.3562 14.1125 15.2188C13.9938 15.0813 13.7188 14.875 13.4937 14.7625ZM21.1125 14.7188C20.85 14.5938 20.6812 14.5625 20.3125 14.5625C19.975 14.5625 19.7687 14.6 19.5625 14.6938C19.4062 14.7625 19.1812 14.9 19.0625 14.9937C18.9438 15.0875 18.7562 15.3063 18.6437 15.475C18.5375 15.6438 18.4 15.95 18.3438 16.1562C18.2625 16.4188 18.2438 16.675 18.2625 17.0312C18.2812 17.3813 18.3313 17.6313 18.4438 17.875C18.5312 18.0625 18.725 18.35 18.875 18.5187C19.0312 18.6875 19.3125 18.8937 19.5 18.9875C19.7812 19.125 19.9312 19.1562 20.3125 19.1562C20.6938 19.1562 20.8438 19.125 21.125 18.9875C21.3312 18.8875 21.5875 18.6875 21.7687 18.4875C21.9375 18.3062 22.1312 18 22.2062 17.8125C22.3125 17.5438 22.3375 17.3312 22.3438 16.8438C22.3438 16.275 22.325 16.1812 22.1562 15.8125C22.05 15.5875 21.8438 15.2875 21.7 15.1375C21.5563 14.9937 21.2875 14.8 21.1125 14.7188Z" fill="white"/>
</g>
<defs>
<clipPath id="clip0_363_688">
<rect width="32" height="32" fill="white" transform="translate(0.5)"/>
</clipPath>
</defs>
</svg>
