<svg width="29" height="30" viewBox="0 0 29 30" fill="none" xmlns="http://www.w3.org/2000/svg">
<g id="Group">
<path id="Vector" d="M11.5403 20.7396H12.9603L22.08 11.6199L20.66 10.1999L12.2603 18.6197L8.42049 14.7799L7.00049 16.1999L11.5403 20.7396Z" fill="white"/>
<path id="Vector_2" fill-rule="evenodd" clip-rule="evenodd" d="M16.2005 0.99997C19.4004 1.19998 22.4004 2.79998 24.6004 4.99998C27.2004 7.79998 28.6004 11.2 28.6004 15.2C28.6004 18.4 27.4004 21.4 25.4004 24C23.4004 26.4 20.6004 28.2 17.4005 28.8C14.2005 29.4 11.0005 29 8.20048 27.4C5.40048 25.8 3.20048 23.4 2.00048 20.4C0.800484 17.4 0.600484 14 1.60048 11C2.60048 7.79998 4.40048 5.19998 7.20048 3.39998C9.80048 1.59998 13.0005 0.79997 16.2005 0.99997ZM17.2005 26.8C19.8004 26.2 22.2004 24.8 24.0004 22.6C25.6004 20.4 26.6004 17.8 26.4004 15C26.4004 11.8 25.2004 8.59998 23.0004 6.39998C21.0004 4.39998 18.6005 3.19998 15.8005 2.99998C13.2005 2.79998 10.4005 3.39998 8.20048 4.99998C6.00048 6.59998 4.40048 8.79998 3.60048 11.6C2.80048 14.2 2.80048 17 4.00048 19.6C5.20048 22.2 7.00048 24.2 9.40048 25.6C11.8005 27 14.6005 27.4 17.2005 26.8Z" fill="white"/>
</g>
</svg>
