<svg width="200" height="200" viewBox="0 0 200 200" fill="none" xmlns="http://www.w3.org/2000/svg">
<g id="Frame 241 1" clip-path="url(#clip0_487_713)">
<path id="Vector" d="M175 0H25C11.1929 0 0 11.1929 0 25V175C0 188.807 11.1929 200 25 200H175C188.807 200 200 188.807 200 175V25C200 11.1929 188.807 0 175 0Z" fill="white"/>
<path id="Vector_2" d="M102.67 38.7181C103.032 38.3662 103.614 37.9602 103.935 37.7977C104.256 37.6353 104.859 37.5 105.24 37.5C105.622 37.5 106.304 37.6353 106.746 37.8248C107.187 37.9873 107.87 38.5827 108.252 39.097C108.834 39.882 109.216 41.0189 110.44 45.5934C111.243 48.6521 112.849 54.2553 113.974 58.0449C115.098 61.8344 116.724 67.0856 117.587 69.6844C118.431 72.2825 120.157 77.2094 121.382 80.6469C122.627 84.0575 124.534 89.065 125.618 91.745C126.702 94.4244 128.449 98.5662 129.493 100.948C130.537 103.33 132.686 107.904 134.251 111.099C135.817 114.293 138.267 118.976 139.672 121.52C141.077 124.064 142.985 127.34 143.889 128.829C144.792 130.318 146.539 133.051 147.743 134.919C148.948 136.787 151.337 140.197 153.044 142.498C154.75 144.826 157.461 148.318 159.087 150.294C161.436 153.136 162.099 154.083 162.279 154.868C162.399 155.437 162.5 156.438 162.5 157.115C162.5 157.792 162.319 158.82 162.099 159.416C161.897 160.011 161.436 160.823 161.074 161.229C160.733 161.662 160.111 162.122 159.709 162.258C159.187 162.474 150.132 162.529 103.875 162.393L102.991 161.581C102.489 161.094 101.947 160.255 101.225 158.333V99.9469C101.225 42.0746 101.225 41.5332 101.626 40.4504C101.847 39.8549 102.329 39.0699 102.67 38.7181Z" fill="black"/>
<path id="Vector_3" d="M80.1037 38.9617C80.405 38.664 80.9669 38.285 81.3481 38.0955C81.75 37.879 82.6131 37.7707 83.3563 37.8248C84.3 37.879 84.9219 38.0955 85.5644 38.6098C86.0662 38.9888 86.7694 39.7738 87.1306 40.3422C87.4919 40.9106 87.9338 42.0746 88.0944 42.8866C88.4156 44.3483 88.3956 44.5378 87.5925 51.1425C87.1506 54.8508 86.5481 60.2915 86.2875 63.1881C86.0062 66.0844 85.645 70.5231 85.4844 73.0675C85.3037 75.585 85.0625 79.4831 84.9625 81.7294C84.8419 83.9494 84.7013 90.2294 84.6213 95.67C84.5606 101.733 84.6006 108.094 84.7413 112.181C84.8819 115.836 85.1025 121.006 85.2837 123.686C85.4444 126.365 85.705 130.209 85.8856 132.212C86.0462 134.215 86.4481 138.411 86.7694 141.551C87.1106 144.691 87.5925 148.94 87.8738 151.024C88.1544 153.109 88.3756 155.301 88.3756 155.897C88.3756 156.493 88.1544 157.575 87.8937 158.333C87.6525 159.064 87.0906 160.119 86.6488 160.661C86.2269 161.175 85.4644 161.825 84.9625 162.096C84.32 162.448 83.6975 162.556 82.8544 162.474C82.1919 162.42 81.3281 162.149 80.9469 161.906C80.545 161.635 71.5506 149.725 59.3238 133.241C41.8366 109.637 38.3232 104.792 37.9618 103.655C37.6673 102.753 37.5134 101.76 37.5 100.678C37.5 99.4863 37.6406 98.7013 38.0019 97.7C38.3633 96.6981 41.4953 92.205 50.4296 79.835C56.9949 70.7669 66.2506 57.9636 70.9687 51.4131C75.7069 44.8626 79.8025 39.2595 80.1037 38.9617Z" fill="black"/>
</g>
<defs>
<clipPath id="clip0_487_713">
<rect width="200" height="200" fill="white"/>
</clipPath>
</defs>
</svg>
