<svg width="40" height="41" viewBox="0 0 40 41" fill="none" xmlns="http://www.w3.org/2000/svg">
<g filter="url(#filter0_d_395_133)">
<rect x="4" y="0.5" width="32" height="32" rx="16" fill="white" shape-rendering="crispEdges"/>
<path d="M20.4272 6.69489C20.4851 6.63859 20.5782 6.57363 20.6296 6.54764C20.681 6.52165 20.7774 6.5 20.8384 6.5C20.8995 6.5 21.0087 6.52165 21.0793 6.55197C21.15 6.57796 21.2592 6.67324 21.3203 6.75552C21.4134 6.88112 21.4745 7.06302 21.6704 7.79495C21.7989 8.28434 22.0559 9.18085 22.2358 9.78718C22.4157 10.3935 22.6759 11.2337 22.814 11.6495C22.9489 12.0652 23.2252 12.8535 23.4211 13.4035C23.6203 13.9492 23.9255 14.7504 24.0989 15.1792C24.2724 15.6079 24.5519 16.2706 24.7189 16.6517C24.886 17.0328 25.2297 17.7647 25.4802 18.2758C25.7308 18.7868 26.1227 19.5361 26.3476 19.9432C26.5724 20.3503 26.8776 20.8744 27.0222 21.1126C27.1667 21.3508 27.4462 21.7882 27.6389 22.087C27.8317 22.3859 28.2139 22.9315 28.487 23.2997C28.76 23.6721 29.1937 24.2308 29.4539 24.547C29.8297 25.0017 29.9358 25.1533 29.9647 25.2789C29.9839 25.3699 30 25.5301 30 25.6384C30 25.7467 29.9711 25.9112 29.9358 26.0065C29.9036 26.1018 29.8297 26.2317 29.7719 26.2967C29.7173 26.366 29.6177 26.4396 29.5535 26.4613C29.47 26.4959 28.0212 26.5046 20.62 26.4829L20.4786 26.353C20.3983 26.275 20.3116 26.1408 20.196 25.8333V16.4915C20.196 7.23193 20.196 7.14531 20.2602 6.97207C20.2955 6.87679 20.3726 6.75119 20.4272 6.69489Z" fill="black"/>
<path d="M16.8166 6.73387C16.8648 6.68623 16.9547 6.6256 17.0157 6.59528C17.08 6.56063 17.2181 6.54331 17.337 6.55197C17.488 6.56063 17.5875 6.59528 17.6903 6.67757C17.7706 6.7382 17.8831 6.8638 17.9409 6.95475C17.9987 7.0457 18.0694 7.23193 18.0951 7.36186C18.1465 7.59573 18.1433 7.62604 18.0148 8.68279C17.9441 9.27613 17.8477 10.1466 17.806 10.6101C17.761 11.0735 17.7032 11.7837 17.6775 12.1908C17.6486 12.5936 17.61 13.2173 17.594 13.5767C17.5747 13.9319 17.5522 14.9367 17.5394 15.8072C17.5297 16.7773 17.5361 17.7951 17.5586 18.449C17.5811 19.0337 17.6164 19.8609 17.6454 20.2897C17.6711 20.7184 17.7128 21.3334 17.7417 21.6539C17.7674 21.9744 17.8317 22.6457 17.8831 23.1481C17.9377 23.6505 18.0148 24.3304 18.0598 24.6639C18.1047 24.9974 18.1401 25.3482 18.1401 25.4435C18.1401 25.5388 18.1047 25.712 18.063 25.8333C18.0244 25.9502 17.9345 26.1191 17.8638 26.2057C17.7963 26.288 17.6743 26.392 17.594 26.4353C17.4912 26.4916 17.3916 26.5089 17.2567 26.4959C17.1507 26.4872 17.0125 26.4439 16.9515 26.405C16.8872 26.3616 15.4481 24.456 13.4918 21.8185C10.6939 18.0419 10.1317 17.2667 10.0739 17.0848C10.0268 16.9404 10.0021 16.7816 10 16.6084C10 16.4178 10.0225 16.2922 10.0803 16.132C10.1381 15.9717 10.6393 15.2528 12.0687 13.2736C13.1192 11.8227 14.6001 9.77418 15.355 8.7261C16.1131 7.67801 16.7684 6.78151 16.8166 6.73387Z" fill="black"/>
</g>
<defs>
<filter id="filter0_d_395_133" x="0" y="0.5" width="40" height="40" filterUnits="userSpaceOnUse" color-interpolation-filters="sRGB">
<feFlood flood-opacity="0" result="BackgroundImageFix"/>
<feColorMatrix in="SourceAlpha" type="matrix" values="0 0 0 0 0 0 0 0 0 0 0 0 0 0 0 0 0 0 127 0" result="hardAlpha"/>
<feOffset dy="4"/>
<feGaussianBlur stdDeviation="2"/>
<feComposite in2="hardAlpha" operator="out"/>
<feColorMatrix type="matrix" values="0 0 0 0 0 0 0 0 0 0 0 0 0 0 0 0 0 0 0.25 0"/>
<feBlend mode="normal" in2="BackgroundImageFix" result="effect1_dropShadow_395_133"/>
<feBlend mode="normal" in="SourceGraphic" in2="effect1_dropShadow_395_133" result="shape"/>
</filter>
</defs>
</svg>
