<svg width="32" height="33" viewBox="0 0 32 33" fill="none" xmlns="http://www.w3.org/2000/svg">
<rect y="0.5" width="32" height="32" rx="16" fill="white"/>
<path d="M16.4272 6.69489C16.4851 6.63859 16.5782 6.57363 16.6296 6.54764C16.681 6.52165 16.7774 6.5 16.8384 6.5C16.8995 6.5 17.0087 6.52165 17.0793 6.55197C17.15 6.57796 17.2592 6.67324 17.3203 6.75552C17.4134 6.88112 17.4745 7.06302 17.6704 7.79495C17.7989 8.28434 18.0559 9.18085 18.2358 9.78718C18.4157 10.3935 18.6759 11.2337 18.814 11.6495C18.9489 12.0652 19.2252 12.8535 19.4211 13.4035C19.6203 13.9492 19.9255 14.7504 20.0989 15.1792C20.2724 15.6079 20.5519 16.2706 20.7189 16.6517C20.886 17.0328 21.2297 17.7647 21.4802 18.2758C21.7308 18.7868 22.1227 19.5361 22.3476 19.9432C22.5724 20.3503 22.8776 20.8744 23.0222 21.1126C23.1667 21.3508 23.4462 21.7882 23.6389 22.087C23.8317 22.3859 24.2139 22.9315 24.487 23.2997C24.76 23.6721 25.1937 24.2308 25.4539 24.547C25.8297 25.0017 25.9358 25.1533 25.9647 25.2789C25.9839 25.3699 26 25.5301 26 25.6384C26 25.7467 25.9711 25.9112 25.9358 26.0065C25.9036 26.1018 25.8297 26.2317 25.7719 26.2967C25.7173 26.366 25.6177 26.4396 25.5535 26.4613C25.47 26.4959 24.0212 26.5046 16.62 26.4829L16.4786 26.353C16.3983 26.275 16.3116 26.1408 16.196 25.8333V16.4915C16.196 7.23193 16.196 7.14531 16.2602 6.97207C16.2955 6.87679 16.3726 6.75119 16.4272 6.69489Z" fill="black"/>
<path d="M12.8166 6.73387C12.8648 6.68623 12.9547 6.6256 13.0157 6.59528C13.08 6.56063 13.2181 6.54331 13.337 6.55197C13.488 6.56063 13.5875 6.59528 13.6903 6.67757C13.7706 6.7382 13.8831 6.8638 13.9409 6.95475C13.9987 7.0457 14.0694 7.23193 14.0951 7.36186C14.1465 7.59573 14.1433 7.62604 14.0148 8.68279C13.9441 9.27613 13.8477 10.1466 13.806 10.6101C13.761 11.0735 13.7032 11.7837 13.6775 12.1908C13.6486 12.5936 13.61 13.2173 13.594 13.5767C13.5747 13.9319 13.5522 14.9367 13.5394 15.8072C13.5297 16.7773 13.5361 17.7951 13.5586 18.449C13.5811 19.0337 13.6164 19.8609 13.6454 20.2897C13.6711 20.7184 13.7128 21.3334 13.7417 21.6539C13.7674 21.9744 13.8317 22.6457 13.8831 23.1481C13.9377 23.6505 14.0148 24.3304 14.0598 24.6639C14.1047 24.9974 14.1401 25.3482 14.1401 25.4435C14.1401 25.5388 14.1047 25.712 14.063 25.8333C14.0244 25.9502 13.9345 26.1191 13.8638 26.2057C13.7963 26.288 13.6743 26.392 13.594 26.4353C13.4912 26.4916 13.3916 26.5089 13.2567 26.4959C13.1507 26.4872 13.0125 26.4439 12.9515 26.405C12.8872 26.3616 11.4481 24.456 9.49181 21.8185C6.69386 18.0419 6.13171 17.2667 6.07388 17.0848C6.02677 16.9404 6.00214 16.7816 6 16.6084C6 16.4178 6.02249 16.2922 6.08031 16.132C6.13813 15.9717 6.63925 15.2528 8.06874 13.2736C9.11918 11.8227 10.6001 9.77418 11.355 8.7261C12.1131 7.67801 12.7684 6.78151 12.8166 6.73387Z" fill="black"/>
</svg>
