<svg width="32" height="32" viewBox="0 0 32 32" fill="none" xmlns="http://www.w3.org/2000/svg">
<g id="server" clip-path="url(#clip0_572_177)">
<path id="Vector" d="M3.50001 2H28.5C30.432 2 32 3.568 32 5.5V13.5C32 14.244 31.768 14.934 31.372 15.5C31.768 16.066 32 16.756 32 17.5V25.5C32 26.4283 31.6313 27.3185 30.9749 27.9749C30.3185 28.6313 29.4283 29 28.5 29H3.50001C2.57175 29 1.68151 28.6313 1.02513 27.9749C0.368755 27.3185 6.08818e-06 26.4283 6.08818e-06 25.5V17.5C6.08818e-06 16.784 0.218006 16.086 0.628006 15.5C0.217965 14.9138 -0.00133211 14.2154 6.08818e-06 13.5V5.5C6.08818e-06 3.568 1.56801 2 3.50001 2ZM3.00001 5.5V13.5C3.00001 13.776 3.22401 14 3.50001 14H28.5C28.6326 14 28.7598 13.9473 28.8536 13.8536C28.9473 13.7598 29 13.6326 29 13.5V5.5C29 5.36739 28.9473 5.24021 28.8536 5.14645C28.7598 5.05268 28.6326 5 28.5 5H3.50001C3.3674 5 3.24022 5.05268 3.14645 5.14645C3.05268 5.24021 3.00001 5.36739 3.00001 5.5ZM3.50001 17C3.3674 17 3.24022 17.0527 3.14645 17.1464C3.05268 17.2402 3.00001 17.3674 3.00001 17.5V25.5C3.00001 25.776 3.22401 26 3.50001 26H28.5C28.6326 26 28.7598 25.9473 28.8536 25.8536C28.9473 25.7598 29 25.6326 29 25.5V17.5C29 17.3674 28.9473 17.2402 28.8536 17.1464C28.7598 17.0527 28.6326 17 28.5 17H3.50001ZM14 9.5C14 9.10218 14.158 8.72064 14.4393 8.43934C14.7206 8.15804 15.1022 8 15.5 8H24.5C24.8978 8 25.2794 8.15804 25.5607 8.43934C25.842 8.72064 26 9.10218 26 9.5C26 9.89782 25.842 10.2794 25.5607 10.5607C25.2794 10.842 24.8978 11 24.5 11H15.5C15.1022 11 14.7206 10.842 14.4393 10.5607C14.158 10.2794 14 9.89782 14 9.5ZM15.5 20H24.5C24.8978 20 25.2794 20.158 25.5607 20.4393C25.842 20.7206 26 21.1022 26 21.5C26 21.8978 25.842 22.2794 25.5607 22.5607C25.2794 22.842 24.8978 23 24.5 23H15.5C15.1022 23 14.7206 22.842 14.4393 22.5607C14.158 22.2794 14 21.8978 14 21.5C14 21.1022 14.158 20.7206 14.4393 20.4393C14.7206 20.158 15.1022 20 15.5 20ZM6.00001 9.5C6.00001 9.10218 6.15804 8.72064 6.43935 8.43934C6.72065 8.15804 7.10218 8 7.50001 8H8.50001C8.89783 8 9.27936 8.15804 9.56067 8.43934C9.84197 8.72064 10 9.10218 10 9.5C10 9.89782 9.84197 10.2794 9.56067 10.5607C9.27936 10.842 8.89783 11 8.50001 11H7.50001C7.10218 11 6.72065 10.842 6.43935 10.5607C6.15804 10.2794 6.00001 9.89782 6.00001 9.5ZM7.50001 20H8.50001C8.89783 20 9.27936 20.158 9.56067 20.4393C9.84197 20.7206 10 21.1022 10 21.5C10 21.8978 9.84197 22.2794 9.56067 22.5607C9.27936 22.842 8.89783 23 8.50001 23H7.50001C7.10218 23 6.72065 22.842 6.43935 22.5607C6.15804 22.2794 6.00001 21.8978 6.00001 21.5C6.00001 21.1022 6.15804 20.7206 6.43935 20.4393C6.72065 20.158 7.10218 20 7.50001 20Z" fill="#E6E6E6"/>
</g>
<defs>
<clipPath id="clip0_572_177">
<rect width="32" height="32" fill="white"/>
</clipPath>
</defs>
</svg>
