<svg width="33" height="32" viewBox="0 0 33 32" fill="none" xmlns="http://www.w3.org/2000/svg">
<g clip-path="url(#clip0_363_692)">
<path d="M16.5 32C25.3366 32 32.5 24.8366 32.5 16C32.5 7.16344 25.3366 0 16.5 0C7.66344 0 0.5 7.16344 0.5 16C0.5 24.8366 7.66344 32 16.5 32Z" fill="url(#paint0_linear_363_692)"/>
<path fill-rule="evenodd" clip-rule="evenodd" d="M7.7426 15.8311C12.4069 13.7989 15.5172 12.4592 17.0734 11.8119C21.5168 9.96372 22.4401 9.64267 23.0419 9.63207C23.1743 9.62974 23.4702 9.66254 23.6619 9.81809C23.8238 9.94944 23.8683 10.1269 23.8896 10.2514C23.9109 10.3759 23.9375 10.6596 23.9164 10.8813C23.6756 13.4112 22.6337 19.5508 22.1036 22.3844C21.8794 23.5835 21.4377 23.9855 21.0102 24.0248C20.081 24.1103 19.3755 23.4108 18.4756 22.8209C17.0674 21.8978 16.2718 21.3231 14.9049 20.4224C13.3252 19.3814 14.3493 18.8092 15.2495 17.8742C15.4851 17.6294 19.579 13.9058 19.6582 13.568C19.6681 13.5257 19.6773 13.3682 19.5838 13.2851C19.4902 13.2019 19.3521 13.2304 19.2525 13.253C19.1113 13.285 16.8616 14.772 12.5036 17.7138C11.8651 18.1522 11.2867 18.3659 10.7685 18.3547C10.1972 18.3423 9.09826 18.0317 8.28133 17.7661C7.27933 17.4404 6.48296 17.2682 6.55231 16.715C6.58842 16.4269 6.98519 16.1323 7.7426 15.8311Z" fill="white"/>
</g>
<defs>
<linearGradient id="paint0_linear_363_692" x1="1600.5" y1="0" x2="1600.5" y2="3176.27" gradientUnits="userSpaceOnUse">
<stop stop-color="#2AABEE"/>
<stop offset="1" stop-color="#229ED9"/>
</linearGradient>
<clipPath id="clip0_363_692">
<rect width="32" height="32" fill="white" transform="translate(0.5)"/>
</clipPath>
</defs>
</svg>
