<svg width="32" height="32" viewBox="0 0 32 32" fill="none" xmlns="http://www.w3.org/2000/svg">
<g id="user">
<path id="Vector" d="M16 5.33331C17.4145 5.33331 18.7711 5.89522 19.7713 6.89541C20.7715 7.8956 21.3334 9.25216 21.3334 10.6666C21.3334 12.0811 20.7715 13.4377 19.7713 14.4379C18.7711 15.4381 17.4145 16 16 16C14.5856 16 13.229 15.4381 12.2288 14.4379C11.2286 13.4377 10.6667 12.0811 10.6667 10.6666C10.6667 9.25216 11.2286 7.8956 12.2288 6.89541C13.229 5.89522 14.5856 5.33331 16 5.33331ZM16 7.99998C15.2928 7.99998 14.6145 8.28093 14.1144 8.78103C13.6143 9.28113 13.3334 9.9594 13.3334 10.6666C13.3334 11.3739 13.6143 12.0522 14.1144 12.5523C14.6145 13.0524 15.2928 13.3333 16 13.3333C16.7073 13.3333 17.3856 13.0524 17.8857 12.5523C18.3858 12.0522 18.6667 11.3739 18.6667 10.6666C18.6667 9.9594 18.3858 9.28113 17.8857 8.78103C17.3856 8.28093 16.7073 7.99998 16 7.99998ZM16 17.3333C19.56 17.3333 26.6667 19.1066 26.6667 22.6666V26.6666H5.33337V22.6666C5.33337 19.1066 12.44 17.3333 16 17.3333ZM16 19.8666C12.04 19.8666 7.86671 21.8133 7.86671 22.6666V24.1333H24.1334V22.6666C24.1334 21.8133 19.96 19.8666 16 19.8666Z" fill="white"/>
</g>
</svg>
