<svg width="33" height="32" viewBox="0 0 33 32" fill="none" xmlns="http://www.w3.org/2000/svg">
<g clip-path="url(#clip0_363_684)">
<mask id="mask0_363_684" style="mask-type:luminance" maskUnits="userSpaceOnUse" x="0" y="0" width="33" height="32">
<path d="M32.6582 0H0.658203V32H32.6582V0Z" fill="white"/>
</mask>
<g mask="url(#mask0_363_684)">
<path d="M0.658203 15.36C0.658203 8.11923 0.658203 4.49885 2.90762 2.24942C5.15705 0 8.77744 0 16.0182 0H17.2982C24.539 0 28.1594 0 30.4088 2.24942C32.6582 4.49885 32.6582 8.11923 32.6582 15.36V16.64C32.6582 23.8808 32.6582 27.5012 30.4088 29.7506C28.1594 32 24.539 32 17.2982 32H16.0182C8.77744 32 5.15705 32 2.90762 29.7506C0.658203 27.5012 0.658203 23.8808 0.658203 16.64V15.36Z" fill="#0077FF"/>
<path d="M17.6848 23.0534C10.3914 23.0534 6.23145 18.0534 6.05811 9.7334H9.71145C9.83145 15.8401 12.5247 18.4267 14.658 18.9601V9.7334H18.0982V15C20.2048 14.7734 22.4179 12.3734 23.1646 9.7334H26.6047C26.0313 12.9867 23.6313 15.3867 21.9247 16.3734C23.6313 17.1734 26.3648 19.2667 27.4048 23.0534H23.618C22.8047 20.5201 20.7782 18.5601 18.0982 18.2934V23.0534H17.6848Z" fill="white"/>
</g>
</g>
<defs>
<clipPath id="clip0_363_684">
<rect width="32" height="32" fill="white" transform="translate(0.5)"/>
</clipPath>
</defs>
</svg>
