<svg width="32" height="23" viewBox="0 0 32 23" fill="none" xmlns="http://www.w3.org/2000/svg">
<g clip-path="url(#clip0_508_1159)">
<path d="M31.3309 3.74193C30.9636 2.35551 29.8782 1.26385 28.5018 0.892678C26.0073 0.219482 16 0.219482 16 0.219482C16 0.219482 5.99273 0.219482 3.49818 0.892678C2.12182 1.26385 1.03636 2.35551 0.669091 3.74193C0 6.25641 0 11.5001 0 11.5001C0 11.5001 0 16.7437 0.669091 19.2582C1.03636 20.6446 2.12182 21.7363 3.49818 22.1074C5.99455 22.7806 16 22.7806 16 22.7806C16 22.7806 26.0073 22.7806 28.5018 22.1074C29.8782 21.7363 30.9636 20.6446 31.3309 19.2582C32 16.7455 32 11.5001 32 11.5001C32 11.5001 32 6.25641 31.3309 3.74193Z" fill="#FF0000"/>
<path d="M12.7273 16.2615L21.0909 11.5L12.7273 6.73853V16.2615Z" fill="white"/>
</g>
<defs>
<clipPath id="clip0_508_1159">
<rect width="32" height="22.5612" fill="white" transform="translate(0 0.219482)"/>
</clipPath>
</defs>
</svg>
