<svg width="14" height="12" viewBox="0 0 14 12" fill="none" xmlns="http://www.w3.org/2000/svg">
<g id="Artboard">
<path id="Path-3" fill-rule="evenodd" clip-rule="evenodd" d="M1.43201 4.87333C4.93026 3.3492 7.26297 2.3444 8.43015 1.85893C11.7627 0.472817 12.4551 0.232035 12.9065 0.224084C13.0058 0.222335 13.2277 0.246937 13.3715 0.3636C13.4929 0.462108 13.5263 0.595178 13.5423 0.688575C13.5583 0.781971 13.5782 0.994731 13.5623 1.16098C13.3817 3.05846 12.6003 7.66315 12.2028 9.78837C12.0346 10.6876 11.7034 10.9891 11.3827 11.0186C10.6858 11.0828 10.1567 10.5581 9.48173 10.1157C8.42558 9.42335 7.82892 8.99238 6.80373 8.3168C5.61896 7.53605 6.387 7.10694 7.0622 6.40565C7.2389 6.22211 10.3093 3.42935 10.3687 3.17601C10.3762 3.14432 10.3831 3.02621 10.3129 2.96385C10.2427 2.90148 10.1392 2.92281 10.0644 2.93977C9.9585 2.96381 8.27128 4.07901 5.00276 6.28535C4.52385 6.61421 4.09007 6.77444 3.70141 6.76604C3.27295 6.75678 2.44876 6.52378 1.83606 6.32462C1.08456 6.08033 0.48728 5.95118 0.53929 5.53631C0.56638 5.32022 0.863955 5.09923 1.43201 4.87333Z" fill="black"/>
</g>
</svg>
