<svg width="32" height="33" viewBox="0 0 32 33" fill="none" xmlns="http://www.w3.org/2000/svg">
<g id="Discord logo">
<g id="Path 1">
<path fill-rule="evenodd" clip-rule="evenodd" d="M11.4687 7.9375C11.0562 8.03125 10.4375 8.2 10.0937 8.3125C9.74999 8.41875 9.11874 8.65625 8.69374 8.83125L7.92499 9.15625C7.36874 10.025 7.03749 10.5875 6.83124 10.9688C6.62499 11.3438 6.32499 11.95 6.15624 12.3125C5.99374 12.6687 5.76874 13.2063 5.65624 13.5C5.54374 13.7875 5.36874 14.3125 5.26249 14.6562C5.15624 15 4.99999 15.575 4.91249 15.9375C4.82499 16.2937 4.69999 16.9875 4.62499 17.4687C4.53749 18.0437 4.48124 18.7937 4.45624 19.6875C4.43749 20.425 4.43749 21.325 4.46249 21.6875L4.50624 22.3437C5.68749 23.1312 6.19999 23.4563 6.40624 23.575C6.61249 23.7 7.06249 23.9375 7.40624 24.1063C7.74999 24.2812 8.26874 24.5188 8.56249 24.6375C8.85624 24.7625 9.33749 24.9437 9.64374 25.0562C9.94374 25.1625 10.2375 25.25 10.2937 25.25C10.3625 25.25 10.5375 25.05 10.7437 24.7313C10.9312 24.45 11.1937 24.0125 11.325 23.7625C11.4562 23.5125 11.55 23.2812 11.5312 23.25C11.5125 23.2125 11.4625 23.1875 11.4187 23.1875C11.3812 23.1812 10.9687 23 10.5125 22.7812C10.0625 22.5562 9.68749 22.35 9.68749 22.325C9.68124 22.3 9.78124 22.2 9.90624 22.1062L10.125 21.9375C10.6812 22.1875 11.15 22.3687 11.5312 22.4937C11.9125 22.625 12.5562 22.8125 12.9687 22.9C13.3812 22.9937 14.0437 23.1125 14.4375 23.1562C14.8312 23.2062 15.5062 23.2437 15.9375 23.2437C16.3687 23.2437 16.975 23.2187 17.2812 23.1875C17.5875 23.15 18.025 23.0937 18.25 23.0562C18.475 23.0187 18.8812 22.9312 19.1562 22.8625C19.4312 22.8 19.925 22.6562 20.25 22.55C20.575 22.4437 21.0625 22.2562 21.325 22.1437L21.8125 21.9375C22.1 22.175 22.1875 22.275 22.1875 22.3125C22.1875 22.3437 22.0125 22.4687 21.7937 22.5875C21.5812 22.7062 21.1625 22.9125 20.8562 23.0437L20.3125 23.2812C20.7187 24.0062 20.9875 24.45 21.1812 24.7375C21.4 25.0562 21.575 25.25 21.6375 25.25C21.7 25.25 22.1375 25.1062 22.6062 24.925C23.0812 24.75 23.8187 24.4437 24.25 24.2375C24.6812 24.0312 25.3812 23.6562 25.8125 23.4C26.2437 23.1437 26.7812 22.7937 27.0125 22.6187L27.4375 22.3125C27.5 21.075 27.5 20.1937 27.4812 19.5625C27.4562 18.925 27.3812 18.0125 27.3125 17.5312C27.2437 17.05 27.0875 16.2625 26.9687 15.7812C26.8562 15.3 26.6687 14.6375 26.5625 14.3125C26.45 13.9812 26.2437 13.4187 26.0937 13.0625C25.95 12.7 25.6687 12.0875 25.475 11.7C25.2812 11.3125 24.9625 10.725 24.7625 10.3875C24.5625 10.0562 24.3 9.63125 24.1812 9.45625C23.9875 9.15 23.925 9.10625 23.375 8.88125C23.05 8.74375 22.4875 8.53125 22.125 8.40625C21.7625 8.28125 21.075 8.0875 20.5937 7.96875C20.1125 7.85 19.6 7.74375 19.45 7.71875L19.1875 7.6875C18.6375 8.83125 18.575 8.925 18.4687 8.9C18.4 8.8875 18.0875 8.84375 17.7812 8.8125C17.475 8.775 16.6562 8.75 15.9687 8.75C15.2812 8.75 14.4625 8.775 14.1562 8.8125C13.85 8.84375 13.5375 8.8875 13.4687 8.9C13.3625 8.925 13.2937 8.83125 13.0312 8.30625C12.7875 7.81875 12.6937 7.6875 12.5937 7.69375C12.525 7.69375 12.4125 7.7125 12.3437 7.725C12.275 7.74375 11.8812 7.8375 11.4687 7.9375ZM12.9937 15.2625C12.65 15.0875 12.5312 15.0563 12.1562 15.0625C11.9187 15.0625 11.6187 15.1 11.5 15.1438C11.3812 15.1875 11.1687 15.3 11.025 15.4062C10.8812 15.5062 10.6937 15.675 10.6062 15.7812C10.5187 15.8813 10.3687 16.1375 10.275 16.3438C10.1625 16.6 10.0937 16.8625 10.075 17.1875C10.05 17.5625 10.0687 17.7437 10.1812 18.0937C10.2562 18.3312 10.4187 18.6625 10.5375 18.825C10.65 18.9875 10.8687 19.2062 11.0125 19.3125C11.1625 19.4187 11.4375 19.55 11.625 19.6062C11.8375 19.6625 12.0875 19.6875 12.2812 19.6687C12.45 19.65 12.7437 19.5687 12.9312 19.4875C13.1312 19.4 13.375 19.225 13.5375 19.0437C13.6875 18.8812 13.8875 18.5875 13.9812 18.3875C14.1375 18.0625 14.1562 17.9625 14.1562 17.3437C14.1562 16.7312 14.1375 16.6187 13.9937 16.3125C13.9 16.1187 13.7312 15.8562 13.6125 15.7188C13.4937 15.5813 13.2187 15.375 12.9937 15.2625ZM20.6125 15.2188C20.35 15.0938 20.1812 15.0625 19.8125 15.0625C19.475 15.0625 19.2687 15.1 19.0625 15.1938C18.9062 15.2625 18.6812 15.4 18.5625 15.4937C18.4437 15.5875 18.2562 15.8063 18.1437 15.975C18.0375 16.1438 17.9 16.45 17.8437 16.6562C17.7625 16.9187 17.7437 17.175 17.7625 17.5312C17.7812 17.8812 17.8312 18.1312 17.9437 18.375C18.0312 18.5625 18.225 18.85 18.375 19.0187C18.5312 19.1875 18.8125 19.3937 19 19.4875C19.2812 19.625 19.4312 19.6562 19.8125 19.6562C20.1937 19.6562 20.3437 19.625 20.625 19.4875C20.8312 19.3875 21.0875 19.1875 21.2687 18.9875C21.4375 18.8062 21.6312 18.5 21.7062 18.3125C21.8125 18.0437 21.8375 17.8312 21.8437 17.3437C21.8437 16.775 21.825 16.6812 21.6562 16.3125C21.55 16.0875 21.3437 15.7875 21.2 15.6375C21.0562 15.4937 20.7875 15.3 20.6125 15.2188Z" fill="white"/>
</g>
</g>
</svg>
