<svg width="20" height="20" viewBox="0 0 20 20" fill="none" xmlns="http://www.w3.org/2000/svg">
<g id="Vector">
<path d="M10.4272 0.194892C10.4851 0.13859 10.5782 0.0736258 10.6296 0.0476402C10.681 0.0216547 10.7774 0 10.8384 0C10.8995 0 11.0087 0.0216547 11.0793 0.0519712C11.15 0.0779568 11.2592 0.173237 11.3203 0.255525C11.4134 0.381122 11.4745 0.563021 11.6704 1.29495C11.7989 1.78434 12.0559 2.68085 12.2358 3.28718C12.4157 3.89351 12.6759 4.73371 12.814 5.14948C12.9489 5.56525 13.2252 6.35347 13.4211 6.9035C13.6203 7.4492 13.9255 8.25042 14.0989 8.67918C14.2724 9.10795 14.5519 9.77058 14.7189 10.1517C14.886 10.5328 15.2297 11.2647 15.4802 11.7758C15.7308 12.2868 16.1227 13.0361 16.3476 13.4432C16.5724 13.8503 16.8776 14.3744 17.0222 14.6126C17.1667 14.8508 17.4462 15.2882 17.6389 15.587C17.8317 15.8859 18.2139 16.4315 18.487 16.7997C18.76 17.1721 19.1937 17.7308 19.4539 18.047C19.8297 18.5017 19.9358 18.6533 19.9647 18.7789C19.9839 18.8699 20 19.0301 20 19.1384C20 19.2467 19.9711 19.4112 19.9358 19.5065C19.9036 19.6018 19.8297 19.7317 19.7719 19.7967C19.7173 19.866 19.6177 19.9396 19.5535 19.9613C19.47 19.9959 18.0212 20.0046 10.62 19.9829L10.4786 19.853C10.3983 19.775 10.3116 19.6408 10.196 19.3333V9.99146C10.196 0.731927 10.196 0.645309 10.2602 0.472071C10.2955 0.376791 10.3726 0.251194 10.4272 0.194892Z" fill="black"/>
<path d="M6.81658 0.23387C6.86476 0.18623 6.95471 0.125597 7.01574 0.0952805C7.07999 0.060633 7.21812 0.0433093 7.33697 0.0519712C7.48795 0.060633 7.58754 0.0952805 7.69033 0.177568C7.77064 0.238201 7.88307 0.363798 7.94089 0.454748C7.99872 0.545697 8.06939 0.731927 8.09509 0.861855C8.14648 1.09573 8.14327 1.12604 8.01478 2.18279C7.94411 2.77613 7.84774 3.64664 7.80598 4.11005C7.761 4.57346 7.70318 5.28373 7.67748 5.69084C7.64857 6.09362 7.61002 6.71727 7.59396 7.07674C7.57469 7.43188 7.5522 8.43665 7.53935 9.30717C7.52971 10.2773 7.53614 11.2951 7.55863 11.949C7.58111 12.5337 7.61645 13.3609 7.64536 13.7897C7.67106 14.2184 7.71282 14.8334 7.74173 15.1539C7.76743 15.4744 7.83167 16.1457 7.88307 16.6481C7.93768 17.1505 8.01478 17.8304 8.05975 18.1639C8.10472 18.4974 8.14006 18.8482 8.14006 18.9435C8.14006 19.0388 8.10472 19.212 8.06296 19.3333C8.02442 19.4502 7.93447 19.6191 7.8638 19.7057C7.79634 19.788 7.67427 19.892 7.59396 19.9353C7.49117 19.9916 7.39158 20.0089 7.25667 19.9959C7.15066 19.9872 7.01253 19.9439 6.95149 19.905C6.88725 19.8616 5.44812 17.956 3.49181 15.3185C0.693865 11.5419 0.131706 10.7667 0.0738837 10.5848C0.0267695 10.4404 0.00214156 10.2816 0 10.1084C0 9.91783 0.0224863 9.79223 0.0803084 9.63199C0.13813 9.47174 0.639255 8.75281 2.06874 6.77357C3.11918 5.32271 4.60006 3.27418 5.35496 2.2261C6.11307 1.17801 6.76839 0.28151 6.81658 0.23387Z" fill="black"/>
</g>
</svg>
