<svg width="18" height="15" viewBox="0 0 18 15" fill="none" xmlns="http://www.w3.org/2000/svg">
<g id="Artboard">
<path id="Path-3" fill-rule="evenodd" clip-rule="evenodd" d="M1.2426 6.33119C5.90693 4.29901 9.01721 2.95928 10.5734 2.31199C15.0168 0.463838 15.9401 0.142794 16.5419 0.132193C16.6743 0.129862 16.9702 0.162664 17.1619 0.318215C17.3238 0.449559 17.3683 0.626986 17.3896 0.751514C17.4109 0.876043 17.4375 1.15972 17.4164 1.38138C17.1756 3.91136 16.1337 10.051 15.6036 12.8846C15.3794 14.0836 14.9377 14.4856 14.5102 14.5249C13.581 14.6104 12.8755 13.9109 11.9756 13.321C10.5674 12.3979 9.77181 11.8233 8.4049 10.9225C6.8252 9.88148 7.84925 9.30933 8.74952 8.37427C8.98512 8.12957 13.079 4.40589 13.1582 4.06809C13.1681 4.02584 13.1773 3.86837 13.0838 3.78521C12.9902 3.70206 12.8521 3.7305 12.7525 3.75311C12.6113 3.78517 10.3616 5.27209 6.0036 8.21388C5.36505 8.65236 4.78667 8.866 4.26847 8.8548C3.69718 8.84246 2.59826 8.53179 1.78133 8.26624C0.77933 7.94053 -0.0170408 7.76832 0.0523052 7.21516C0.0884249 6.92704 0.485191 6.63238 1.2426 6.33119Z" fill="white"/>
</g>
</svg>
