<svg width="20" height="20" viewBox="0 0 20 20" fill="none" xmlns="http://www.w3.org/2000/svg">
<g id="bx-user.svg">
<path id="Vector" d="M10 1.66666C7.7025 1.66666 5.83333 3.53582 5.83333 5.83332C5.83333 8.13082 7.7025 9.99999 10 9.99999C12.2975 9.99999 14.1667 8.13082 14.1667 5.83332C14.1667 3.53582 12.2975 1.66666 10 1.66666ZM10 8.33332C8.62167 8.33332 7.5 7.21166 7.5 5.83332C7.5 4.45499 8.62167 3.33332 10 3.33332C11.3783 3.33332 12.5 4.45499 12.5 5.83332C12.5 7.21166 11.3783 8.33332 10 8.33332ZM17.5 17.5V16.6667C17.5 13.4508 14.8825 10.8333 11.6667 10.8333H8.33333C5.11667 10.8333 2.5 13.4508 2.5 16.6667V17.5H4.16667V16.6667C4.16667 14.3692 6.03583 12.5 8.33333 12.5H11.6667C13.9642 12.5 15.8333 14.3692 15.8333 16.6667V17.5H17.5Z" fill="#E6E6E6"/>
</g>
</svg>
