<svg width="20" height="20" viewBox="0 0 20 20" fill="none" xmlns="http://www.w3.org/2000/svg">
<g id="bxs-discount.svg">
<path id="Vector" d="M17.5001 4.16666H16.6667H15.0001H5.00008H3.33341H2.50008C2.03925 4.16666 1.66675 4.53916 1.66675 4.99999V5.83332V7.44832V8.33332H2.41091C3.24091 8.33332 4.01091 8.90082 4.14425 9.71999C4.31425 10.7642 3.51258 11.6667 2.50008 11.6667H1.66675V12.5517V14.1667V15C1.66675 15.4608 2.03925 15.8333 2.50008 15.8333H3.33341H5.00008H15.0001H16.6667H17.5001C17.9609 15.8333 18.3334 15.4608 18.3334 15V14.1667V12.5517V11.6667C18.3334 11.6667 17.9609 11.6667 17.5001 11.6667C16.4876 11.6667 15.6859 10.7642 15.8559 9.71999C15.9892 8.90082 16.7592 8.33332 17.5892 8.33332H18.3334V7.44832V5.83332V4.99999C18.3334 4.53916 17.9609 4.16666 17.5001 4.16666ZM7.50008 7.49999C7.96092 7.49999 8.33342 7.87249 8.33342 8.33332C8.33342 8.79416 7.96092 9.16666 7.50008 9.16666C7.03925 9.16666 6.66675 8.79416 6.66675 8.33332C6.66675 7.87249 7.03925 7.49999 7.50008 7.49999ZM6.83342 12.8333L11.8334 6.16666L13.1667 7.16666L8.16675 13.8333L6.83342 12.8333ZM12.5001 12.5C12.0392 12.5 11.6667 12.1275 11.6667 11.6667C11.6667 11.2058 12.0392 10.8333 12.5001 10.8333C12.9609 10.8333 13.3334 11.2058 13.3334 11.6667C13.3334 12.1275 12.9609 12.5 12.5001 12.5Z" fill="#E6E6E6"/>
</g>
</svg>
